<mxfile host="Electron" modified="2023-06-02T10:48:36.521Z" agent="Mozilla/5.0 (Windows NT 10.0; Win64; x64) AppleWebKit/537.36 (KHTML, like Gecko) draw.io/21.2.8 Chrome/112.0.5615.165 Electron/24.2.0 Safari/537.36" etag="0AY9XcN_zRrBknkzKiXH" version="21.2.8" type="device">
  <diagram id="C5RBs43oDa-KdzZeNtuy" name="Page-1">
    <mxGraphModel dx="3129" dy="2553" grid="1" gridSize="10" guides="1" tooltips="1" connect="1" arrows="1" fold="1" page="1" pageScale="1" pageWidth="827" pageHeight="1169" math="0" shadow="0">
      <root>
        <mxCell id="WIyWlLk6GJQsqaUBKTNV-0" />
        <mxCell id="WIyWlLk6GJQsqaUBKTNV-1" parent="WIyWlLk6GJQsqaUBKTNV-0" />
        <mxCell id="SR5nicGKkBTj7TMBBqLN-28" value="" style="line;strokeWidth=4;html=1;perimeter=backbonePerimeter;points=[];outlineConnect=0;dashed=1;dashPattern=8 8;" parent="WIyWlLk6GJQsqaUBKTNV-1" vertex="1">
          <mxGeometry x="-440" y="210" width="1750" height="10" as="geometry" />
        </mxCell>
        <mxCell id="b4k3C6Gka1uhANi-ps0s-7" value="&lt;font style=&quot;font-size: 24px;&quot;&gt;Optimization Problem&lt;/font&gt;" style="rounded=1;swimlane;whiteSpace=wrap;html=1;" parent="WIyWlLk6GJQsqaUBKTNV-1" vertex="1">
          <mxGeometry x="-300" y="20" width="720" height="120" as="geometry" />
        </mxCell>
        <mxCell id="b4k3C6Gka1uhANi-ps0s-12" value="&lt;div style=&quot;text-align: left; font-size: 24px; line-height: 100%;&quot;&gt;&lt;font style=&quot;font-size: 24px;&quot;&gt;&lt;b&gt;&lt;font face=&quot;Times New Roman&quot; style=&quot;font-size: 24px;&quot;&gt;A farmer wants to fence a rectangular field with a river on one side.&lt;/font&gt;&lt;font face=&quot;Times New Roman&quot; style=&quot;font-size: 24px;&quot;&gt;&amp;nbsp;&lt;/font&gt;&lt;/b&gt;&lt;/font&gt;&lt;/div&gt;&lt;div style=&quot;font-size: 24px; line-height: 100%;&quot;&gt;&lt;font face=&quot;Times New Roman&quot; style=&quot;font-size: 24px;&quot;&gt;&lt;br&gt;&lt;/font&gt;&lt;/div&gt;&lt;div style=&quot;text-align: left; font-size: 24px; line-height: 100%;&quot;&gt;&lt;font face=&quot;Times New Roman&quot; style=&quot;font-size: 24px;&quot;&gt;&lt;font style=&quot;font-size: 24px;&quot;&gt;(&lt;/font&gt;&lt;font style=&quot;font-size: 24px;&quot;&gt;ommited for brevity)&lt;/font&gt;&lt;/font&gt;&lt;font face=&quot;Times New Roman&quot; style=&quot;font-size: 20px;&quot;&gt;&lt;br&gt;&lt;/font&gt;&lt;/div&gt;&lt;div style=&quot;font-size: 16px;&quot;&gt;&lt;br&gt;&lt;/div&gt;" style="text;html=1;align=center;verticalAlign=middle;resizable=0;points=[];autosize=1;strokeColor=none;fillColor=none;" parent="b4k3C6Gka1uhANi-ps0s-7" vertex="1">
          <mxGeometry y="35" width="720" height="110" as="geometry" />
        </mxCell>
        <mxCell id="b4k3C6Gka1uhANi-ps0s-8" value="&lt;font style=&quot;font-size: 24px;&quot;&gt;Modeling Prompt&lt;/font&gt;" style="rounded=1;swimlane;whiteSpace=wrap;html=1;startSize=23;" parent="WIyWlLk6GJQsqaUBKTNV-1" vertex="1">
          <mxGeometry x="-282.5" y="-217.5" width="650" height="187.5" as="geometry" />
        </mxCell>
        <mxCell id="b4k3C6Gka1uhANi-ps0s-11" value="&lt;p style=&quot;box-sizing: border-box; line-height: 0%; orphans: 4; margin-top: 1rem; margin-bottom: 1.5em; position: relative; color: rgb(31, 9, 9); text-align: start; font-size: 24px;&quot; class=&quot;md-end-block md-p md-focus&quot;&gt;&lt;font style=&quot;font-size: 24px;&quot;&gt;&lt;font face=&quot;Times New Roman&quot; style=&quot;font-size: 24px;&quot;&gt;&lt;b style=&quot;&quot;&gt;Imagine you are an expert in optimization&amp;nbsp;&lt;/b&gt;&lt;/font&gt;&lt;/font&gt;&lt;font style=&quot;background-color: initial;&quot; face=&quot;Times New Roman&quot;&gt;&lt;b&gt;and mathematical&amp;nbsp;&lt;/b&gt;&lt;/font&gt;&lt;/p&gt;&lt;p style=&quot;box-sizing: border-box; line-height: 0%; orphans: 4; margin-top: 1rem; margin-bottom: 1.5em; position: relative; color: rgb(31, 9, 9); text-align: start; font-size: 24px;&quot; class=&quot;md-end-block md-p md-focus&quot;&gt;&lt;font style=&quot;background-color: initial;&quot; face=&quot;Times New Roman&quot;&gt;&lt;b&gt;modeling.&lt;/b&gt;&lt;/font&gt;&lt;span style=&quot;background-color: initial; font-family: &amp;quot;Times New Roman&amp;quot;;&quot;&gt;&amp;nbsp;&lt;/span&gt;&lt;/p&gt;&lt;p style=&quot;box-sizing: border-box; line-height: 0%; orphans: 4; margin-top: 1rem; margin-bottom: 1.5em; position: relative; color: rgb(31, 9, 9); text-align: start;&quot; class=&quot;md-end-block md-p md-focus&quot;&gt;&lt;font style=&quot;font-size: 24px;&quot; face=&quot;Times New Roman&quot;&gt;(ommited for brevity)&lt;/font&gt;&lt;/p&gt;&lt;p style=&quot;box-sizing: border-box; line-height: 0%; orphans: 4; margin-top: 1rem; margin-bottom: 1.5em; position: relative; color: rgb(31, 9, 9); text-align: start;&quot; class=&quot;md-end-block md-p md-focus&quot;&gt;&lt;font style=&quot;font-size: 24px;&quot; face=&quot;Times New Roman&quot;&gt;&lt;br&gt;&lt;/font&gt;&lt;/p&gt;&lt;p style=&quot;box-sizing: border-box; line-height: 0%; orphans: 4; margin-top: 1rem; margin-bottom: 1.5em; position: relative; color: rgb(31, 9, 9); text-align: start;&quot; class=&quot;md-end-block md-p md-focus&quot;&gt;&lt;b style=&quot;font-size: 24px; font-family: &amp;quot;Times New Roman&amp;quot;; background-color: initial;&quot;&gt;Are you ready?&lt;/b&gt;&lt;br&gt;&lt;/p&gt;" style="text;html=1;align=center;verticalAlign=middle;resizable=0;points=[];autosize=1;strokeColor=none;fillColor=none;" parent="b4k3C6Gka1uhANi-ps0s-8" vertex="1">
          <mxGeometry y="27.5" width="650" height="170" as="geometry" />
        </mxCell>
        <mxCell id="b4k3C6Gka1uhANi-ps0s-10" value="&lt;font style=&quot;font-size: 24px;&quot;&gt;&lt;b&gt;&amp;amp;&lt;/b&gt;&lt;/font&gt;" style="text;html=1;align=center;verticalAlign=middle;resizable=0;points=[];autosize=1;strokeColor=none;fillColor=none;" parent="WIyWlLk6GJQsqaUBKTNV-1" vertex="1">
          <mxGeometry x="22.5" y="-30" width="40" height="40" as="geometry" />
        </mxCell>
        <mxCell id="b4k3C6Gka1uhANi-ps0s-15" value="&lt;font style=&quot;font-size: 24px;&quot;&gt;LLMs&lt;/font&gt;" style="rounded=1;whiteSpace=wrap;html=1;" parent="WIyWlLk6GJQsqaUBKTNV-1" vertex="1">
          <mxGeometry x="460" y="-77.5" width="210" height="145" as="geometry" />
        </mxCell>
        <mxCell id="bZFVCR8azL2zKcfl2KdV-16" value="" style="edgeStyle=orthogonalEdgeStyle;rounded=0;orthogonalLoop=1;jettySize=auto;html=1;entryX=-0.005;entryY=0.482;entryDx=0;entryDy=0;entryPerimeter=0;" parent="WIyWlLk6GJQsqaUBKTNV-1" source="b4k3C6Gka1uhANi-ps0s-16" target="SR5nicGKkBTj7TMBBqLN-1" edge="1">
          <mxGeometry relative="1" as="geometry">
            <mxPoint x="1173" as="targetPoint" />
          </mxGeometry>
        </mxCell>
        <mxCell id="b4k3C6Gka1uhANi-ps0s-16" value="&lt;font style=&quot;font-size: 24px;&quot;&gt;Human Eval.&lt;/font&gt;" style="strokeWidth=2;html=1;shape=mxgraph.flowchart.decision;whiteSpace=wrap;" parent="WIyWlLk6GJQsqaUBKTNV-1" vertex="1">
          <mxGeometry x="820" y="-97.5" width="213" height="195" as="geometry" />
        </mxCell>
        <mxCell id="b4k3C6Gka1uhANi-ps0s-18" value="&lt;font style=&quot;font-size: 24px;&quot;&gt;Model&lt;/font&gt;" style="text;html=1;align=center;verticalAlign=middle;resizable=0;points=[];autosize=1;strokeColor=none;fillColor=none;" parent="WIyWlLk6GJQsqaUBKTNV-1" vertex="1">
          <mxGeometry x="700" y="-50" width="90" height="40" as="geometry" />
        </mxCell>
        <mxCell id="SR5nicGKkBTj7TMBBqLN-1" value="&lt;font style=&quot;font-size: 24px;&quot;&gt;Terminated&lt;/font&gt;" style="ellipse;whiteSpace=wrap;html=1;aspect=fixed;" parent="WIyWlLk6GJQsqaUBKTNV-1" vertex="1">
          <mxGeometry x="1200" y="-65" width="135" height="135" as="geometry" />
        </mxCell>
        <mxCell id="SR5nicGKkBTj7TMBBqLN-5" value="&lt;font style=&quot;font-size: 24px;&quot;&gt;Coding Prompt&lt;/font&gt;" style="rounded=1;swimlane;whiteSpace=wrap;html=1;startSize=23;" parent="WIyWlLk6GJQsqaUBKTNV-1" vertex="1">
          <mxGeometry x="640" y="337.5" width="560" height="162.5" as="geometry" />
        </mxCell>
        <mxCell id="SR5nicGKkBTj7TMBBqLN-6" value="&lt;div style=&quot;text-align: left; font-size: 24px; line-height: 120%;&quot;&gt;&lt;font face=&quot;Times New Roman&quot; style=&quot;font-size: 24px;&quot;&gt;&lt;b style=&quot;&quot;&gt;&lt;span style=&quot;background-color: initial;&quot;&gt;Imagine you are now an experienced programmer.&lt;/span&gt;&lt;/b&gt;&lt;/font&gt;&lt;/div&gt;&lt;div style=&quot;text-align: left; font-size: 24px; line-height: 120%;&quot;&gt;&lt;font face=&quot;Times New Roman&quot; style=&quot;font-size: 24px;&quot;&gt;&lt;b style=&quot;&quot;&gt;&lt;span style=&quot;background-color: initial; orphans: 4;&quot;&gt;Please use the model&amp;nbsp;&lt;/span&gt;&lt;/b&gt;&lt;/font&gt;&lt;span style=&quot;font-family: &amp;quot;Times New Roman&amp;quot;; background-color: initial; orphans: 4;&quot;&gt;&lt;b&gt;and problem description above&amp;nbsp;&lt;/b&gt;&lt;/span&gt;&lt;/div&gt;&lt;div style=&quot;text-align: left; font-size: 24px; line-height: 120%;&quot;&gt;&lt;span style=&quot;font-family: &amp;quot;Times New Roman&amp;quot;; background-color: initial; orphans: 4;&quot;&gt;&lt;b&gt;to write code in Python to solve the problem.&lt;/b&gt;&lt;/span&gt;&lt;font style=&quot;font-family: &amp;quot;Times New Roman&amp;quot;; background-color: initial; orphans: 4;&quot; color=&quot;#1f0909&quot;&gt;.&lt;/font&gt;&lt;/div&gt;&lt;p style=&quot;box-sizing: border-box; line-height: 0%; orphans: 4; margin-top: 1rem; margin-bottom: 1.5em; position: relative; color: rgb(31, 9, 9); text-align: start; font-size: 24px;&quot; class=&quot;md-end-block md-p md-focus&quot;&gt;&lt;span style=&quot;background-color: initial;&quot;&gt;&lt;font style=&quot;font-size: 24px;&quot; face=&quot;Times New Roman&quot;&gt;(ommited for brevity)&lt;/font&gt;&lt;/span&gt;&lt;/p&gt;" style="text;html=1;align=center;verticalAlign=middle;resizable=0;points=[];autosize=1;strokeColor=none;fillColor=none;" parent="SR5nicGKkBTj7TMBBqLN-5" vertex="1">
          <mxGeometry y="26.25" width="560" height="150" as="geometry" />
        </mxCell>
        <mxCell id="bZFVCR8azL2zKcfl2KdV-4" style="edgeStyle=orthogonalEdgeStyle;rounded=0;orthogonalLoop=1;jettySize=auto;html=1;exitX=0;exitY=0.5;exitDx=0;exitDy=0;entryX=1;entryY=0.5;entryDx=0;entryDy=0;entryPerimeter=0;" parent="WIyWlLk6GJQsqaUBKTNV-1" source="SR5nicGKkBTj7TMBBqLN-7" target="SR5nicGKkBTj7TMBBqLN-11" edge="1">
          <mxGeometry relative="1" as="geometry" />
        </mxCell>
        <mxCell id="SR5nicGKkBTj7TMBBqLN-7" value="&lt;font style=&quot;font-size: 24px;&quot;&gt;LLMs&lt;/font&gt;" style="rounded=1;whiteSpace=wrap;html=1;" parent="WIyWlLk6GJQsqaUBKTNV-1" vertex="1">
          <mxGeometry x="330" y="357.5" width="210" height="145" as="geometry" />
        </mxCell>
        <mxCell id="SR5nicGKkBTj7TMBBqLN-8" value="&lt;font style=&quot;font-size: 24px;&quot;&gt;Input&lt;/font&gt;" style="text;html=1;align=center;verticalAlign=middle;resizable=0;points=[];autosize=1;strokeColor=none;fillColor=none;" parent="WIyWlLk6GJQsqaUBKTNV-1" vertex="1">
          <mxGeometry x="374" y="-60" width="80" height="40" as="geometry" />
        </mxCell>
        <mxCell id="SR5nicGKkBTj7TMBBqLN-10" value="&lt;font style=&quot;font-size: 24px;&quot;&gt;Input&lt;/font&gt;" style="text;html=1;align=center;verticalAlign=middle;resizable=0;points=[];autosize=1;strokeColor=none;fillColor=none;" parent="WIyWlLk6GJQsqaUBKTNV-1" vertex="1">
          <mxGeometry x="560" y="380" width="80" height="40" as="geometry" />
        </mxCell>
        <mxCell id="bZFVCR8azL2zKcfl2KdV-8" value="" style="edgeStyle=orthogonalEdgeStyle;rounded=0;orthogonalLoop=1;jettySize=auto;html=1;" parent="WIyWlLk6GJQsqaUBKTNV-1" source="SR5nicGKkBTj7TMBBqLN-11" target="SR5nicGKkBTj7TMBBqLN-23" edge="1">
          <mxGeometry relative="1" as="geometry" />
        </mxCell>
        <mxCell id="SR5nicGKkBTj7TMBBqLN-11" value="&lt;font style=&quot;font-size: 24px;&quot;&gt;&amp;nbsp;Human Eval.&lt;/font&gt;" style="strokeWidth=2;html=1;shape=mxgraph.flowchart.decision;whiteSpace=wrap;" parent="WIyWlLk6GJQsqaUBKTNV-1" vertex="1">
          <mxGeometry x="-10" y="320" width="208.5" height="220" as="geometry" />
        </mxCell>
        <mxCell id="SR5nicGKkBTj7TMBBqLN-13" value="&lt;font style=&quot;font-size: 24px;&quot;&gt;Code&lt;/font&gt;" style="text;html=1;align=center;verticalAlign=middle;resizable=0;points=[];autosize=1;strokeColor=none;fillColor=none;" parent="WIyWlLk6GJQsqaUBKTNV-1" vertex="1">
          <mxGeometry x="220" y="380" width="80" height="40" as="geometry" />
        </mxCell>
        <mxCell id="SR5nicGKkBTj7TMBBqLN-15" value="&lt;font style=&quot;font-size: 24px;&quot;&gt;False &lt;br&gt;(After 1st Attempt)&lt;/font&gt;" style="text;html=1;align=center;verticalAlign=middle;resizable=0;points=[];autosize=1;strokeColor=none;fillColor=none;" parent="WIyWlLk6GJQsqaUBKTNV-1" vertex="1">
          <mxGeometry x="90.00000000000006" y="502.5" width="220" height="70" as="geometry" />
        </mxCell>
        <mxCell id="SR5nicGKkBTj7TMBBqLN-19" value="&lt;font style=&quot;font-size: 24px;&quot;&gt;Terminated&lt;/font&gt;" style="ellipse;whiteSpace=wrap;html=1;aspect=fixed;flipV=1;" parent="WIyWlLk6GJQsqaUBKTNV-1" vertex="1">
          <mxGeometry x="-320" y="362.5" width="135" height="135" as="geometry" />
        </mxCell>
        <mxCell id="SR5nicGKkBTj7TMBBqLN-23" value="&lt;font style=&quot;font-size: 24px;&quot;&gt;Solution&lt;/font&gt;" style="text;html=1;align=center;verticalAlign=middle;resizable=0;points=[];autosize=1;strokeColor=none;fillColor=none;" parent="WIyWlLk6GJQsqaUBKTNV-1" vertex="1">
          <mxGeometry x="39.25" y="220" width="110" height="40" as="geometry" />
        </mxCell>
        <mxCell id="SR5nicGKkBTj7TMBBqLN-26" value="" style="edgeStyle=elbowEdgeStyle;elbow=vertical;endArrow=classic;html=1;curved=0;rounded=0;endSize=8;startSize=8;exitX=0.5;exitY=0;exitDx=0;exitDy=0;exitPerimeter=0;" parent="WIyWlLk6GJQsqaUBKTNV-1" source="b4k3C6Gka1uhANi-ps0s-16" target="bZFVCR8azL2zKcfl2KdV-18" edge="1">
          <mxGeometry width="50" height="50" relative="1" as="geometry">
            <mxPoint x="865.9999999999991" y="-130" as="sourcePoint" />
            <mxPoint x="740" y="-250" as="targetPoint" />
            <Array as="points">
              <mxPoint x="850" y="-182" />
              <mxPoint x="860" y="-250" />
              <mxPoint x="689.9999999999991" y="-160" />
              <mxPoint x="559.9999999999991" y="-260" />
            </Array>
          </mxGeometry>
        </mxCell>
        <mxCell id="SR5nicGKkBTj7TMBBqLN-29" value="&lt;font face=&quot;Times New Roman&quot; style=&quot;font-size: 24px;&quot;&gt;&lt;b&gt;Stage 1:&lt;br&gt;Modeling&lt;/b&gt;&lt;/font&gt;" style="text;html=1;align=center;verticalAlign=middle;resizable=0;points=[];autosize=1;strokeColor=none;fillColor=none;" parent="WIyWlLk6GJQsqaUBKTNV-1" vertex="1">
          <mxGeometry x="-440" y="40" width="120" height="70" as="geometry" />
        </mxCell>
        <mxCell id="SR5nicGKkBTj7TMBBqLN-30" value="&lt;font face=&quot;Times New Roman&quot; style=&quot;font-size: 24px;&quot;&gt;&lt;b&gt;Stage 2:&lt;br&gt;Coding&lt;/b&gt;&lt;/font&gt;" style="text;html=1;align=center;verticalAlign=middle;resizable=0;points=[];autosize=1;strokeColor=none;fillColor=none;" parent="WIyWlLk6GJQsqaUBKTNV-1" vertex="1">
          <mxGeometry x="-435" y="273" width="110" height="70" as="geometry" />
        </mxCell>
        <mxCell id="bZFVCR8azL2zKcfl2KdV-0" value="&lt;font style=&quot;font-size: 24px;&quot;&gt;False&lt;br style=&quot;border-color: var(--border-color); background-color: rgb(255, 255, 255);&quot;&gt;&lt;/font&gt;&lt;span style=&quot;font-size: 24px; background-color: rgb(255, 255, 255);&quot;&gt;(After&lt;/span&gt;&lt;span style=&quot;font-size: 24px; background-color: rgb(255, 255, 255);&quot;&gt;&amp;nbsp;Reflection)&lt;/span&gt;" style="text;html=1;align=center;verticalAlign=middle;resizable=0;points=[];autosize=1;strokeColor=none;fillColor=none;" parent="WIyWlLk6GJQsqaUBKTNV-1" vertex="1">
          <mxGeometry x="-185" y="350" width="200" height="70" as="geometry" />
        </mxCell>
        <mxCell id="bZFVCR8azL2zKcfl2KdV-1" value="" style="endArrow=classic;html=1;rounded=0;exitX=0;exitY=0.5;exitDx=0;exitDy=0;exitPerimeter=0;" parent="WIyWlLk6GJQsqaUBKTNV-1" source="SR5nicGKkBTj7TMBBqLN-11" target="SR5nicGKkBTj7TMBBqLN-19" edge="1">
          <mxGeometry width="50" height="50" relative="1" as="geometry">
            <mxPoint x="300" y="320" as="sourcePoint" />
            <mxPoint x="350" y="270" as="targetPoint" />
          </mxGeometry>
        </mxCell>
        <mxCell id="bZFVCR8azL2zKcfl2KdV-7" value="" style="edgeStyle=orthogonalEdgeStyle;rounded=0;orthogonalLoop=1;jettySize=auto;html=1;" parent="WIyWlLk6GJQsqaUBKTNV-1" source="bZFVCR8azL2zKcfl2KdV-2" target="SR5nicGKkBTj7TMBBqLN-7" edge="1">
          <mxGeometry relative="1" as="geometry" />
        </mxCell>
        <mxCell id="bZFVCR8azL2zKcfl2KdV-2" value="&lt;font style=&quot;font-size: 24px;&quot;&gt;Reflection Prompt&lt;/font&gt;" style="rounded=1;swimlane;whiteSpace=wrap;html=1;startSize=23;arcSize=15;" parent="WIyWlLk6GJQsqaUBKTNV-1" vertex="1">
          <mxGeometry x="320" y="525" width="230" height="95" as="geometry" />
        </mxCell>
        <mxCell id="bZFVCR8azL2zKcfl2KdV-3" value="&lt;div style=&quot;text-align: left; font-size: 24px; line-height: 120%;&quot;&gt;&lt;br&gt;&lt;/div&gt;&lt;p style=&quot;box-sizing: border-box; line-height: 0%; orphans: 4; margin-top: 1rem; margin-bottom: 1.5em; position: relative; color: rgb(31, 9, 9); text-align: start; font-size: 24px;&quot; class=&quot;md-end-block md-p md-focus&quot;&gt;&lt;span style=&quot;background-color: initial;&quot;&gt;&lt;font style=&quot;font-size: 24px;&quot; face=&quot;Times New Roman&quot;&gt;(ommited for brevity)&lt;/font&gt;&lt;/span&gt;&lt;/p&gt;" style="text;html=1;align=center;verticalAlign=middle;resizable=0;points=[];autosize=1;strokeColor=none;fillColor=none;" parent="bZFVCR8azL2zKcfl2KdV-2" vertex="1">
          <mxGeometry y="2.5" width="230" height="90" as="geometry" />
        </mxCell>
        <mxCell id="bZFVCR8azL2zKcfl2KdV-6" value="" style="endArrow=classic;html=1;rounded=0;entryX=1;entryY=0.5;entryDx=0;entryDy=0;" parent="WIyWlLk6GJQsqaUBKTNV-1" target="SR5nicGKkBTj7TMBBqLN-7" edge="1">
          <mxGeometry width="50" height="50" relative="1" as="geometry">
            <mxPoint x="640" y="430" as="sourcePoint" />
            <mxPoint x="580" y="400" as="targetPoint" />
          </mxGeometry>
        </mxCell>
        <mxCell id="bZFVCR8azL2zKcfl2KdV-9" value="&lt;font style=&quot;font-size: 24px;&quot;&gt;True&lt;/font&gt;" style="text;html=1;align=center;verticalAlign=middle;resizable=0;points=[];autosize=1;strokeColor=none;fillColor=none;" parent="WIyWlLk6GJQsqaUBKTNV-1" vertex="1">
          <mxGeometry x="100" y="273" width="70" height="40" as="geometry" />
        </mxCell>
        <mxCell id="bZFVCR8azL2zKcfl2KdV-10" value="" style="endArrow=classic;html=1;rounded=0;entryX=-0.011;entryY=0.54;entryDx=0;entryDy=0;entryPerimeter=0;" parent="WIyWlLk6GJQsqaUBKTNV-1" target="b4k3C6Gka1uhANi-ps0s-15" edge="1">
          <mxGeometry width="50" height="50" relative="1" as="geometry">
            <mxPoint x="360" as="sourcePoint" />
            <mxPoint x="430" y="-60" as="targetPoint" />
          </mxGeometry>
        </mxCell>
        <mxCell id="bZFVCR8azL2zKcfl2KdV-11" value="" style="endArrow=classic;html=1;rounded=0;exitX=1.001;exitY=0.545;exitDx=0;exitDy=0;exitPerimeter=0;entryX=0;entryY=0.5;entryDx=0;entryDy=0;entryPerimeter=0;" parent="WIyWlLk6GJQsqaUBKTNV-1" source="b4k3C6Gka1uhANi-ps0s-15" target="b4k3C6Gka1uhANi-ps0s-16" edge="1">
          <mxGeometry width="50" height="50" relative="1" as="geometry">
            <mxPoint x="700" y="10" as="sourcePoint" />
            <mxPoint x="750" y="-40" as="targetPoint" />
          </mxGeometry>
        </mxCell>
        <mxCell id="bZFVCR8azL2zKcfl2KdV-12" value="" style="endArrow=classic;html=1;rounded=0;exitX=0.5;exitY=1;exitDx=0;exitDy=0;exitPerimeter=0;" parent="WIyWlLk6GJQsqaUBKTNV-1" source="b4k3C6Gka1uhANi-ps0s-16" edge="1">
          <mxGeometry width="50" height="50" relative="1" as="geometry">
            <mxPoint x="920" y="230" as="sourcePoint" />
            <mxPoint x="930" y="330" as="targetPoint" />
          </mxGeometry>
        </mxCell>
        <mxCell id="bZFVCR8azL2zKcfl2KdV-20" value="" style="edgeStyle=orthogonalEdgeStyle;rounded=0;orthogonalLoop=1;jettySize=auto;html=1;" parent="WIyWlLk6GJQsqaUBKTNV-1" source="bZFVCR8azL2zKcfl2KdV-17" target="b4k3C6Gka1uhANi-ps0s-15" edge="1">
          <mxGeometry relative="1" as="geometry" />
        </mxCell>
        <mxCell id="bZFVCR8azL2zKcfl2KdV-17" value="&lt;font style=&quot;font-size: 24px;&quot;&gt;Reflection Prompt&lt;/font&gt;" style="rounded=1;swimlane;whiteSpace=wrap;html=1;startSize=23;arcSize=0;" parent="WIyWlLk6GJQsqaUBKTNV-1" vertex="1">
          <mxGeometry x="450" y="-230" width="230" height="95" as="geometry" />
        </mxCell>
        <mxCell id="bZFVCR8azL2zKcfl2KdV-18" value="&lt;div style=&quot;text-align: left; font-size: 24px; line-height: 120%;&quot;&gt;&lt;br&gt;&lt;/div&gt;&lt;p style=&quot;box-sizing: border-box; line-height: 0%; orphans: 4; margin-top: 1rem; margin-bottom: 1.5em; position: relative; color: rgb(31, 9, 9); text-align: start; font-size: 24px;&quot; class=&quot;md-end-block md-p md-focus&quot;&gt;&lt;span style=&quot;background-color: initial;&quot;&gt;&lt;font style=&quot;font-size: 24px;&quot; face=&quot;Times New Roman&quot;&gt;(ommited for brevity)&lt;/font&gt;&lt;/span&gt;&lt;/p&gt;" style="text;html=1;align=center;verticalAlign=middle;resizable=0;points=[];autosize=1;strokeColor=none;fillColor=none;" parent="bZFVCR8azL2zKcfl2KdV-17" vertex="1">
          <mxGeometry y="2.5" width="230" height="90" as="geometry" />
        </mxCell>
        <mxCell id="bZFVCR8azL2zKcfl2KdV-19" value="&lt;font style=&quot;font-size: 24px;&quot;&gt;False &lt;br&gt;(After 1st Attempt)&lt;/font&gt;" style="text;html=1;align=center;verticalAlign=middle;resizable=0;points=[];autosize=1;strokeColor=none;fillColor=none;" parent="WIyWlLk6GJQsqaUBKTNV-1" vertex="1">
          <mxGeometry x="700" y="-260" width="220" height="70" as="geometry" />
        </mxCell>
        <mxCell id="bZFVCR8azL2zKcfl2KdV-21" value="" style="edgeStyle=elbowEdgeStyle;elbow=horizontal;endArrow=classic;html=1;curved=0;rounded=0;endSize=8;startSize=8;exitX=0.5;exitY=1;exitDx=0;exitDy=0;exitPerimeter=0;entryX=0;entryY=0.596;entryDx=0;entryDy=0;entryPerimeter=0;" parent="WIyWlLk6GJQsqaUBKTNV-1" source="SR5nicGKkBTj7TMBBqLN-11" target="bZFVCR8azL2zKcfl2KdV-3" edge="1">
          <mxGeometry width="50" height="50" relative="1" as="geometry">
            <mxPoint x="390" y="430" as="sourcePoint" />
            <mxPoint x="310" y="580" as="targetPoint" />
            <Array as="points">
              <mxPoint x="94" y="570" />
              <mxPoint x="96" y="580" />
            </Array>
          </mxGeometry>
        </mxCell>
        <mxCell id="bZFVCR8azL2zKcfl2KdV-22" value="&lt;font style=&quot;font-size: 24px;&quot;&gt;False&lt;br style=&quot;border-color: var(--border-color); background-color: rgb(255, 255, 255);&quot;&gt;&lt;/font&gt;&lt;span style=&quot;font-size: 24px; background-color: rgb(255, 255, 255);&quot;&gt;(After&lt;/span&gt;&lt;span style=&quot;font-size: 24px; background-color: rgb(255, 255, 255);&quot;&gt;&amp;nbsp;Reflection)&lt;/span&gt;" style="text;html=1;align=center;verticalAlign=middle;resizable=0;points=[];autosize=1;strokeColor=none;fillColor=none;" parent="WIyWlLk6GJQsqaUBKTNV-1" vertex="1">
          <mxGeometry x="1010" y="-80" width="200" height="70" as="geometry" />
        </mxCell>
        <mxCell id="bZFVCR8azL2zKcfl2KdV-23" value="&lt;font style=&quot;font-size: 24px;&quot;&gt;True&lt;/font&gt;" style="text;html=1;align=center;verticalAlign=middle;resizable=0;points=[];autosize=1;strokeColor=none;fillColor=none;" parent="WIyWlLk6GJQsqaUBKTNV-1" vertex="1">
          <mxGeometry x="940" y="120" width="70" height="40" as="geometry" />
        </mxCell>
      </root>
    </mxGraphModel>
  </diagram>
</mxfile>
